<svg width="25" height="25" viewBox="0 0 25 25" fill="none" xmlns="http://www.w3.org/2000/svg">
<mask id="mask0_65_1263" style="mask-type:alpha" maskUnits="userSpaceOnUse" x="0" y="0" width="25" height="25">
<rect x="0.389999" y="0.557617" width="24" height="24" fill="#D9D9D9"/>
</mask>
<g mask="url(#mask0_65_1263)">
<path d="M21.34 22.9326L18.39 19.9826V22.2076H16.39V16.5576H22.04V18.5576H19.79L22.74 21.5076L21.34 22.9326ZM12.39 22.5576C11.0067 22.5576 9.70667 22.2951 8.49 21.7701C7.27333 21.2451 6.215 20.5326 5.315 19.6326C4.415 18.7326 3.7025 17.6743 3.1775 16.4576C2.6525 15.241 2.39 13.941 2.39 12.5576C2.39 11.1743 2.6525 9.87428 3.1775 8.65762C3.7025 7.44095 4.415 6.38262 5.315 5.48262C6.215 4.58262 7.27333 3.87012 8.49 3.34512C9.70667 2.82012 11.0067 2.55762 12.39 2.55762C13.7733 2.55762 15.0733 2.82012 16.29 3.34512C17.5067 3.87012 18.565 4.58262 19.465 5.48262C20.365 6.38262 21.0775 7.44095 21.6025 8.65762C22.1275 9.87428 22.39 11.1743 22.39 12.5576C22.39 12.891 22.3733 13.2243 22.34 13.5576C22.3067 13.891 22.2567 14.2243 22.19 14.5576H20.14C20.2233 14.2243 20.2858 13.891 20.3275 13.5576C20.3692 13.2243 20.39 12.891 20.39 12.5576C20.39 12.2243 20.3692 11.891 20.3275 11.5576C20.2858 11.2243 20.2233 10.891 20.14 10.5576H16.74C16.79 10.891 16.8275 11.2243 16.8525 11.5576C16.8775 11.891 16.89 12.2243 16.89 12.5576C16.89 12.891 16.8775 13.2243 16.8525 13.5576C16.8275 13.891 16.79 14.2243 16.74 14.5576H14.74C14.79 14.2243 14.8275 13.891 14.8525 13.5576C14.8775 13.2243 14.89 12.891 14.89 12.5576C14.89 12.2243 14.8775 11.891 14.8525 11.5576C14.8275 11.2243 14.79 10.891 14.74 10.5576H10.04C9.99 10.891 9.9525 11.2243 9.9275 11.5576C9.9025 11.891 9.89 12.2243 9.89 12.5576C9.89 12.891 9.9025 13.2243 9.9275 13.5576C9.9525 13.891 9.99 14.2243 10.04 14.5576H13.39V16.5576H10.49C10.69 17.2743 10.9483 17.9618 11.265 18.6201C11.5817 19.2785 11.9567 19.9076 12.39 20.5076C12.7233 20.5076 13.0567 20.4868 13.39 20.4451C13.7233 20.4035 14.0567 20.3659 14.39 20.3326V22.3826C14.0567 22.416 13.7233 22.4535 13.39 22.4951C13.0567 22.5368 12.7233 22.5576 12.39 22.5576ZM4.64 14.5576H8.04C7.99 14.2243 7.9525 13.891 7.9275 13.5576C7.9025 13.2243 7.89 12.891 7.89 12.5576C7.89 12.2243 7.9025 11.891 7.9275 11.5576C7.9525 11.2243 7.99 10.891 8.04 10.5576H4.64C4.55667 10.891 4.49417 11.2243 4.4525 11.5576C4.41083 11.891 4.39 12.2243 4.39 12.5576C4.39 12.891 4.41083 13.2243 4.4525 13.5576C4.49417 13.891 4.55667 14.2243 4.64 14.5576ZM5.49 8.55762H8.44C8.59 7.94095 8.7775 7.33678 9.0025 6.74512C9.2275 6.15345 9.49 5.57428 9.79 5.00762C8.87333 5.30762 8.04833 5.76178 7.315 6.37012C6.58167 6.97845 5.97333 7.70762 5.49 8.55762ZM9.79 20.1076C9.49 19.541 9.2275 18.9618 9.0025 18.3701C8.7775 17.7785 8.59 17.1743 8.44 16.5576H5.49C5.97333 17.4076 6.58167 18.1368 7.315 18.7451C8.04833 19.3535 8.87333 19.8076 9.79 20.1076ZM10.49 8.55762H14.29C14.09 7.84095 13.8317 7.15345 13.515 6.49512C13.1983 5.83678 12.8233 5.20762 12.39 4.60762C11.9567 5.20762 11.5817 5.83678 11.265 6.49512C10.9483 7.15345 10.69 7.84095 10.49 8.55762ZM16.34 8.55762H19.29C18.8067 7.70762 18.1983 6.97845 17.465 6.37012C16.7317 5.76178 15.9067 5.30762 14.99 5.00762C15.29 5.57428 15.5525 6.15345 15.7775 6.74512C16.0025 7.33678 16.19 7.94095 16.34 8.55762Z" fill="#1EBBB8"/>
</g>
</svg>
