<svg width="42" height="11" viewBox="0 0 42 11" fill="none" xmlns="http://www.w3.org/2000/svg">
<path d="M27.1131 9.71098C26.6538 10.0084 26.005 10.1703 25.1802 10.1703C23.6802 10.1703 22.761 9.35959 22.761 7.87312L22.7745 4.9805H21.8828V4.3317L25.0453 1.41272V3.37261H26.9647V4.9805H25.0453V7.60268C25.0453 8.11596 25.2617 8.3729 25.6536 8.44036C25.748 8.45385 25.8425 8.45385 25.9375 8.45385C26.3563 8.45385 26.7617 8.33243 27.1131 8.062V9.71098Z" fill="#141515"/>
<path d="M32.3159 5.94021C32.2619 5.10253 31.924 4.58864 31.1538 4.58864C30.505 4.58864 30.0181 5.07494 29.8832 5.94021H32.3159ZM34.4916 7.11577H29.9237C30.0996 7.94057 30.5724 8.45385 31.3022 8.5489C31.5187 8.56239 31.721 8.58937 31.924 8.58937C32.6133 8.58937 33.2891 8.42686 33.9514 7.96755L34.2623 9.37308C33.7484 9.76494 32.7212 10.1973 31.2752 10.1973C29.1399 10.1973 27.5449 8.94075 27.5449 6.69694C27.5449 4.44024 29.1264 3.18312 31.2752 3.18312C33.397 3.18312 34.5186 4.54817 34.5186 6.69694C34.5186 6.84595 34.5051 7.00784 34.4916 7.11577Z" fill="#141515"/>
<path d="M37.8567 10.0083H35.5859V0.547353H37.8567V10.0083Z" fill="#141515"/>
<path d="M39.1275 9.63742C38.873 9.39028 38.7461 9.08919 38.7461 8.73413C38.7461 8.37906 38.873 8.08103 39.1275 7.84003C39.382 7.59903 39.685 7.47823 40.0376 7.47823C40.4024 7.47823 40.7158 7.59903 40.9764 7.84003C41.2377 8.08103 41.3683 8.37906 41.3683 8.73413C41.3683 9.08919 41.2377 9.39028 40.9764 9.63742C40.7158 9.88455 40.4024 10.0084 40.0376 10.0084C39.685 10.0084 39.382 9.88455 39.1275 9.63742Z" fill="#141515"/>
<path d="M5.19868 5.94021C5.14472 5.10253 4.80683 4.58864 4.03661 4.58864C3.38781 4.58864 2.9009 5.07494 2.76599 5.94021H5.19868ZM7.37443 7.11577H2.80646C2.98246 7.94057 3.45526 8.45385 4.18501 8.5489C4.40148 8.56239 4.60385 8.58937 4.80683 8.58937C5.4961 8.58937 6.17188 8.42686 6.83417 7.96755L7.14508 9.37308C6.63119 9.76494 5.60403 10.1973 4.15803 10.1973C2.02275 10.1973 0.427734 8.94075 0.427734 6.69694C0.427734 4.44024 2.00926 3.18312 4.15803 3.18312C6.27981 3.18312 7.40141 4.54817 7.40141 6.69694C7.40141 6.84595 7.38792 7.00784 7.37443 7.11577Z" fill="#141515"/>
<path d="M21.1625 9.72446C20.6762 10.0354 20.0409 10.1973 19.27 10.1973C18.1754 10.1973 17.2433 9.90046 16.4725 9.18359C15.8372 8.58937 15.4453 7.7241 15.4453 6.68344C15.4453 5.65628 15.8372 4.79162 16.4725 4.1833C17.2433 3.46704 18.1754 3.18312 19.27 3.18312C20.0409 3.18312 20.6762 3.33152 21.1625 3.65592V5.41283C20.7436 5.04795 20.2028 4.85908 19.5675 4.85908C18.5949 4.85908 17.8105 5.53486 17.8105 6.68344C17.8105 7.84613 18.5949 8.52192 19.5675 8.52192C20.2028 8.52192 20.7436 8.33243 21.1625 7.96755V9.72446Z" fill="#141515"/>
<path d="M15.3803 10.0083L12.8667 6.53495C12.8661 6.53373 12.8654 6.53189 12.8648 6.53066C12.8648 6.53066 12.8648 6.53005 12.8642 6.53005C12.8599 6.52637 12.8562 6.52208 12.8532 6.51778L11.6592 8.18393L11.4961 8.43107L12.5827 10.0083H15.3803Z" fill="#141515"/>
<path d="M12.9736 6.37036L15.1567 3.36491H15.1573H12.5891L11.7637 4.69685L12.1752 5.269C12.5253 5.75161 12.9705 6.36668 12.9736 6.37036Z" fill="#141515"/>
<path d="M10.4744 3.37239H7.64988L9.93356 6.52134L7.41992 10.0082H10.123L11.3256 8.18381L12.6299 6.36374L10.4744 3.37239Z" fill="#F79322"/>
</svg>
